<svg xmlns="http://www.w3.org/2000/svg" width="69" height="62" viewBox="0 0 69 62"><g><g><path fill="#fff" d="M44.07.695c6.45 2.08 10.274 8.223 8.539 13.72L39.76 55.118c-1.735 5.496-8.371 8.266-14.823 6.185-6.451-2.08-10.274-8.223-8.539-13.72L29.247 6.88c1.735-5.497 8.371-8.267 14.822-6.186zM62.5 18.923c4.193 1.352 6.677 5.344 5.55 8.916L59.7 54.292c-1.128 3.572-5.44 5.372-9.633 4.02-4.193-1.352-6.678-5.345-5.55-8.917l8.35-26.453c1.127-3.572 5.44-5.372 9.633-4.02zM18.247 6.01c4.193 1.351 6.677 5.344 5.55 8.916l-8.35 26.452c-1.128 3.573-5.44 5.373-9.633 4.02-4.193-1.351-6.677-5.344-5.55-8.916l8.35-26.453c1.127-3.572 5.44-5.372 9.633-4.02z"/></g></g></svg>